<?xml version="1.0" encoding="utf-8"?>
<!-- Generator: Adobe Illustrator 16.0.0, SVG Export Plug-In . SVG Version: 6.00 Build 0)  -->
<!DOCTYPE svg PUBLIC "-//W3C//DTD SVG 1.1//EN" "http://www.w3.org/Graphics/SVG/1.1/DTD/svg11.dtd">
<svg version="1.1" id="Layer_1" xmlns="http://www.w3.org/2000/svg" xmlns:xlink="http://www.w3.org/1999/xlink" x="0px" y="0px"
	 width="1860.863px" height="481.096px" viewBox="0 0 1860.863 481.096" enable-background="new 0 0 1860.863 481.096"
	 xml:space="preserve">
<g>
	<path fill-rule="evenodd" clip-rule="evenodd" d="M1518.633,216.401c-15.081,7.628-30.014,15.251-45.022,22.721
		c-3.562,1.773-7.409,2.962-11.07,4.548c-17.092,7.407-33.745,3.775-49.948-2.656c-10.474-4.156-20.464-9.558-30.534-14.668
		c-1.288-0.653-1.758-2.921-2.605-4.44c1.631-0.526,3.336-1.672,4.88-1.483c13.457,1.636,26.174-1.302,38.575-6.036
		c27.173-10.371,52.479-24.469,77.051-39.816c12.943-8.084,25.193-17.312,37.477-26.401c6.383-4.722,8.796-11.34,8.732-19.601
		c-0.146-18.981,0.237-37.988,1.119-56.951c0.912-19.59-4.215-37.892-10.312-56.096c-1.804-5.387-1.089-8.326,3.958-10.561
		c15.562-6.889,30.892-7.146,45.544,2.695c3.268,2.193,4.097,4.935,3.483,8.984c-5.082,33.57-9.908,67.179-14.789,100.779
		c-0.426,2.932,3.002,7.801,5.865,7.852c5.219,0.094,10.488-0.719,15.662-0.274c8.17,0.702,14.916,4.886,19.604,11.417
		c2.512,3.498,3.555,8.105,4.994,12.303c2.301,6.717,4.24,13.559,6.615,20.247c1.064,2.997,3.262,3.837,6.771,3.235
		c28.79-4.939,56.162-13.752,81.485-28.57c4.572-2.675,9.745-4.33,14.289-7.044c7.954-4.748,10.075-9.744,6.015-17.962
		c-6.249-12.641-13.502-24.795-20.562-37.02c-2.824-4.888-6.552-9.256-9.354-14.155c-2.6-4.546-4.586-9.452-6.715-14.255
		c-3.839-8.66-1.465-15.453,5.638-21.583c16.501-14.241,17.66-13.358,33.921-2.718c8.832,5.779,13.91,14.025,16.152,24.714
		c6.98,33.278,5.43,30.805,35.998,44.889c15.824,7.29,32.385,13.015,48.736,19.12c10.994,4.105,19.857,15.493,20.316,27.165
		c0.123,3.161-0.281,6.376,0.139,9.487c0.734,5.414-1.912,8.218-6.684,9.369c-6.295,1.52-12.75,2.427-18.979,4.16
		c-9.24,2.571-18.352,5.609-27.502,8.498c-9.988,3.153-19.908,6.545-29.963,9.469c-4.793,1.395-6.816,3.878-6.402,8.939
		c1.223,14.967,1.725,29.924-2.443,44.621c-0.299,1.054-0.16,2.342,0.117,3.434c7.354,29.021,6.68,58.475,4.094,87.898
		c-1.848,21.034-4.801,41.978-7.539,62.925c-0.641,4.907-2.576,9.631-3.623,14.503c-5.859,27.252-45.608,39.348-66.35,26.469
		c-14.24-8.842-26.115-20.136-36.765-32.754c-9.333-11.06-17.786-22.858-26.773-34.215c-5.013-6.333-8.052-13.475-8.833-21.397
		c-2.132-21.617,0.244-42.261,14.08-60.193c7.984-10.35,18.074-18.168,29.578-24.121c7.91-4.094,17.221-3.191,22.948,3.678
		c7.721,9.259,14.005,19.704,21.103,29.497c6.434,8.877,5.167,18.31,1.627,27.451c-3.793,9.791-11.459,16.96-20.225,22.104
		c-2.85,1.673-9.211,0.197-12.314-2.084c-4.322-3.177-7.592-8.172-10.389-12.931c-2.859-4.867-5.965-9.147-11.893-9.142
		c-6.491,0.006-9.338,4.86-11.296,10.356c-3.857,10.824-0.134,19.816,6.501,28.236c11.348,14.404,26.766,21.803,44.346,24.349
		c7.74,1.121,16.004,0.179,23.771-1.246c2.912-0.534,6.293-4.69,7.365-7.896c2.994-8.949,5.523-18.157,7.092-27.456
		c3.215-19.063,4.299-38.218,3.42-57.68c-0.799-17.739,1.232-35.599,1.826-53.411c0.309-9.271,0.299-18.556,0.26-27.834
		c-0.029-6.578-3.854-9.207-10.062-7.283c-13.549,4.196-27.91,6.375-41.445,4.016c-14.072-2.453-28.516-5.891-41.016-14.502
		c-6.129-4.225-13.787-6.302-20.877-9.029c-2.943-1.133-5.379-0.342-7.636,2.657c-15.518,20.62-31.185,41.098-43.935,63.651
		c-5.051,8.934-6.641,17.858-5.396,28.117c3.084,25.449,6.219,50.961,7.535,76.539c1.644,31.975,0.325,63.962-7.604,95.263
		c-0.951,3.756-3.031,7.368-5.214,10.629c-2.062,3.08-5.745,4.191-8.792,1.938c-8.917-6.599-18.061-13.06-26.045-20.695
		c-6.141-5.872-8.002-14.164-7.033-22.888c1.104-9.926-3.623-17.743-10.143-24.438c-3.882-3.984-7.051-3.617-10.494,0.754
		c-5.868,7.448-11.414,15.152-17.004,22.817c-3.425,4.698-11.303,6.649-16.312,3.671c-15.394-9.152-28.363-20.846-38.226-35.961
		c-2.513-3.852-2.856-7.538-2.249-11.793c1.928-13.497,7.836-25.117,17.163-34.808c18.953-19.689,34.679-41.769,48.425-65.237
		c8.902-15.196,16.867-30.949,25.002-46.584C1522.036,219.899,1521.655,219.701,1518.633,216.401z M1544.251,349.729
		c-0.25-0.037-0.5-0.074-0.75-0.111c0-2.823,0.472-5.758-0.156-8.434c-0.467-1.985-2.361-3.636-3.619-5.436
		c-1.591,1.395-4.557,2.811-4.535,4.178c0.097,5.981-4.178,9.086-7.255,13.086c-3.538,4.597-6.852,9.37-10.16,14.138
		c-4.485,6.464-3.53,12.64,0.938,18.772c3.37,4.628,7.469,7.807,13.395,6.838c5.434-0.889,6.719-5.835,7.463-10.096
		C1541.477,371.747,1542.734,360.715,1544.251,349.729z"/>
	<path fill-rule="evenodd" clip-rule="evenodd" d="M353.255,239.807c8.779-18.072,34.509-26.051,51.125-16.246
		c6.898,4.07,10.389,11.824,7.358,21.419c-3.173,10.048-7.298,20.035-12.594,29.124c-12.043,20.668-26.883,39.242-45.12,54.957
		c-5.816,5.013-5.578,7.192,1.426,10.219c20.146,8.706,40.383,17.21,60.672,25.581c16.996,7.012,33.437,14.872,47.284,27.33
		c3.472,3.122,5.817,6.598,6.742,11.267c1.097,5.54,2.802,10.957,4.124,16.456c1.088,4.521-1.184,7.787-5.852,7.255
		c-5.024-0.572-10.185-1.72-14.814-3.71c-30.324-13.038-57.795-30.773-83.488-51.387c-5.453-4.374-11.357-8.188-16.758-12.62
		c-3.729-3.061-6.125-1.926-7.777,1.768c-1.825,4.077-3.882,8.256-4.582,12.593c-2.557,15.851-8.847,30.292-16.272,44.248
		c-8.429,15.844-17.353,31.429-26.316,46.979c-1.966,3.411-5.016,6.194-7.548,9.282c-6.297,7.675-16.721,8.196-24.594,4.708
		c-16.73-7.413-24.733-21.499-28.914-38.38c-4.688-18.93-3.221-38.094-1.596-57.173c2.571-30.195,5.61-60.351,8.46-90.521
		c0.575-6.092-3.545-9.336-9.622-7.481c-8.905,2.717-17.732,5.713-26.718,8.125c-4.009,1.076-6.018,3.305-6.555,7.086
		c-1.333,9.384-2.773,18.762-3.748,28.186c-2.342,22.661-4.551,45.338-6.601,68.027c-1.363,15.093-2.328,30.222-3.564,45.326
		c-0.143,1.751-0.475,3.715-1.4,5.138c-7.269,11.188-16.362,20.409-28.189,26.994c-5.822,3.241-10.738,2.517-15.772-0.937
		c-7.227-4.959-11.576-12.242-15.853-19.632c-10.181-17.589-13.854-37.307-18.771-56.622c-1.805-7.094-3.552-14.203-5.21-21.332
		c-0.268-1.151,0.065-2.443,0.121-3.67c1.254,0.094,2.627-0.11,3.745,0.33c7.58,2.99,15.106,6.118,22.651,9.199
		c5.894,2.407,9.42,1.632,11.398-4.539c2.51-7.832,4.851-16.143,4.89-24.258c0.1-20.801-1.081-41.609-1.886-62.409
		c-0.046-1.192-1.308-2.337-2.004-3.503c-1.272,1.092-2.97,1.94-3.752,3.312c-10.72,18.79-21.302,37.658-31.942,56.493
		c-13.939,24.676-30.83,47.076-51.847,66.173c-4.517,4.104-9.625,7.76-14.966,10.703c-8.163,4.498-15.533,2.567-20.105-5.508
		c-6.046-10.678-10.751-21.789-5.406-34.516c2.761-6.573,4.658-13.506,7.241-20.161c0.564-1.454,2.393-2.418,3.64-3.608
		c1.085,1.493,2.511,2.854,3.164,4.517c0.713,1.816,1.078,3.938,0.946,5.883c-0.261,3.848,2.38,4.409,5.05,5.536
		c2.891,1.221,4.229-0.294,5.773-2.172c25.295-30.773,49.747-62.174,69.649-96.803c8.862-15.418,17.077-31.211,25.484-46.888
		c1.215-2.265,1.864-4.833,3.276-8.593c-3.086,0.897-5.058,1.07-6.593,1.979c-18.023,10.671-35.954,21.5-53.988,32.153
		c-2.645,1.562-5.603,2.871-8.585,3.537c-9.091,2.029-18.205,4.425-27.433,5.192c-4.903,0.407-10.74-1.152-14.977-3.748
		c-12.231-7.493-18.942-19.819-25.226-32.199c-1.543-3.041,0.427-4.772,3.547-4.665c2.139,0.073,4.278,0.629,6.384,1.115
		c23.514,5.422,45.923,1.447,66.626-9.934c16.454-9.044,33.182-17.403,50.022-25.656c19.536-9.574,37.297-22.201,53.06-37.083
		c13.448-12.697,29.298-19.791,46.429-25.207c3.102-0.981,6.321-3.007,8.434-5.458c10.354-12.01,19.864-24.654,25.51-39.706
		c6.607-17.612,4.9-23.779-10.005-35.252c-5.506-4.239-11.363-8.022-17.839-12.56c1.97-0.76,3.571-2.042,4.684-1.707
		c17.392,5.248,34.741,10.676,48.404,23.582c7.543,7.125,10.752,15.634,9.059,26.137c-1.323,8.205-1.884,16.535-2.657,24.822
		c-0.125,1.336,0.133,3.759,0.688,3.908c1.606,0.43,3.75,0.498,5.15-0.267c3.931-2.148,7.55-4.859,11.372-7.219
		c23.198-14.323,47.972-25.214,73.87-33.584c1.842-0.595,4.138-0.197,6.136,0.186c4.725,0.905,9.349,2.454,14.101,3.067
		c10.241,1.324,21.239,11.166,22.763,21.385c0.352,2.357-0.249,5.408-1.561,7.373c-8.828,13.223-22.089,16.82-37.018,16.021
		c-7.809-0.418-15.586-1.902-23.381-1.942c-4.851-0.025-9.889,1.227-14.535,2.808c-23.823,8.107-43.192,23.301-61.846,39.556
		c-2.487,2.167-1.562,4.028,1.04,4.73c3.136,0.846,6.527,1.661,9.69,1.339c18.138-1.852,35.929-0.146,53.354,4.941
		c12.26,3.578,16.865,9.438,17.326,21.969c0.088,2.379-1.836,5.348-3.68,7.2c-11.746,11.801-23.708,23.388-35.65,34.992
		c-3.224,3.133-6.775,5.936-9.916,9.146c-11.999,12.263-25.995,21.708-41.195,29.458c-4.474,2.281-5.21,5.123-4.707,10.359
		c1.329,13.8,1.44,27.736,1.548,41.622c0.037,4.792,1.139,8.406,6.017,11.251c10.89-7.795,22.213-15.663,33.279-23.879
		c15.535-11.532,30.48-23.783,43.066-38.606c6.279-7.395,12.02-15.166,13.725-25.097c1.277-7.434-4.805-12.562-11.838-10.004
		C357.865,238.184,355.724,238.929,353.255,239.807z M218.079,181.543c-13.338,0.534-23.068,5.604-30.922,14.085
		c-14.716,15.892-21.413,35.75-26.54,56.191c-0.475,1.892,1.697,5.516,3.641,6.727c4.318,2.688,9.125,4.846,14.006,6.31
		c5.608,1.682,10.438,4.141,14.058,8.773c3.028,3.876,5.984,3.713,9.646,0.527c17.321-15.072,35.165-29.567,52.068-45.089
		c12.833-11.783,24.842-24.519,36.602-37.393c5.659-6.195,4.355-9.892-3.01-14.141c-1.279-0.737-2.698-1.43-4.132-1.671
		c-7.559-1.272-15.06-2.252-22.361,1.563c-4.109,2.146-8.576,3.599-12.829,5.48c-5.051,2.236-10.099,2.646-15.533,1.278
		C227.479,182.853,222.007,182.226,218.079,181.543z M269.46,426.282c6.646-4.896,14.463-9.699,21.138-15.76
		c18.003-16.346,30.294-36.986,41.586-58.198c0.804-1.51-0.547-5.977-1.918-6.526c-6.674-2.682-13.718-6.275-20.589-6.188
		c-9.484,0.118-19.003,2.938-28.369,5.177c-7.718,1.844-7.933,2.708-8.876,10.424c-2.523,20.651-5.069,41.301-7.787,61.928
		C264.163,420.802,264.419,423.732,269.46,426.282z"/>
	<path fill-rule="evenodd" clip-rule="evenodd" d="M743.336,448.34c7.945-7.741,15.008-14.623,22.07-21.504
		c-0.358-0.817-0.716-1.635-1.074-2.452c-1.629-0.43-3.313-1.37-4.878-1.202c-7.278,0.783-14.557,1.68-21.766,2.934
		c-3.656,0.637-5.987-0.396-7.915-3.433c-3.9-6.145-5.046-12.806-1.053-18.866c5.09-7.726,10.859-15.109,17.104-21.938
		c5.252-5.743,11.678-10.401,17.402-15.735c1.084-1.011,2.239-3.542,1.738-4.304c-0.864-1.314-3.031-2.544-4.601-2.485
		c-5.814,0.22-11.624,0.852-17.407,1.562c-16.624,2.042-29.279-3.776-37.717-18.482c-2.859-4.982-6-9.814-9.224-14.571
		c-2.585-3.813-1.372-6.484,2.041-8.737c1.943-1.282,3.797-2.887,5.94-3.64c5.783-2.033,9.316-6.121,11.568-11.553
		c2.983-7.194,6.327-14.276,8.718-21.665c1.917-5.926-1.393-9.127-7.665-7.596c-6.275,1.531-12.424,3.691-18.49,5.948
		c-8.867,3.299-17.639,6.859-26.392,10.453c-3.534,1.451-6.778,1.167-9.968-0.726c-7.572-4.491-15.224-8.858-22.658-13.567
		c-4.552-2.885-5.941-2.928-8.207,2.02c-1.79,3.911-3.611,8.029-4.198,12.227c-1.72,12.306-6.666,23.338-12.768,33.858
		c-22.021,37.967-49.384,71.467-84.203,98.469c-5.437,4.216-11.935,7.114-18.123,10.267c-1.219,0.621-3.867,0.161-4.758-0.809
		c-0.797-0.867-0.648-3.446,0.066-4.718c3.907-6.962,7.666-14.077,12.312-20.539c11.359-15.8,19.631-33.067,26.66-51.136
		c10.971-28.201,22.872-56.043,33.739-84.282c8.272-21.495,12.497-44.107,16.728-66.704c1.793-9.578,6.138-18.687,7.841-28.271
		c3.199-18.009,5.515-36.187,7.668-54.356c0.302-2.546-1.788-6.028-3.791-8.085c-11.034-11.334-22.375-22.371-33.641-33.479
		c-1.294-1.276-2.779-2.36-4.175-3.533c-0.009-0.598-0.018-1.194-0.027-1.792c1.784-0.626,3.554-1.74,5.356-1.796
		c8.953-0.277,17.931-0.633,26.868-0.233c5.075,0.228,10.203,1.469,15.1,2.942c6.517,1.962,12.696,5.155,19.28,6.752
		c4.782,1.159,10.357,1.877,14.934,0.556c17.088-4.933,33.651-11.858,50.896-16.032c22.914-5.545,46.244-9.426,69.487-13.493
		c4.135-0.724,9.043,0.33,13.037,1.941c12.012,4.847,24.031,9.837,35.477,15.854c6.021,3.165,11.354,8.118,16.074,13.132
		c4.317,4.588,3.331,6.576-0.529,11.549c-9.796,12.617-19.528,25.302-28.73,38.352c-3.301,4.681-7.179,7.757-12.413,9.276
		c-13.727,3.983-27.472,7.913-41.266,11.654c-7.06,1.915-14.283,3.223-21.345,5.131c-2.625,0.709-5.18,2.108-7.345,3.749
		c-0.49,0.372,0.298,4,1.311,4.507c3.832,1.921,7.895,3.601,12.056,4.604c16.68,4.021,25.96,15.426,30.771,30.943
		c1.8,5.808,2.229,12.068,2.995,18.158c0.486,3.865,5.41,7.594,8.681,5.639c15.106-9.025,32.281-10.932,48.903-14.832
		c5.135-1.205,9.784-0.823,14.478,1.42c8.692,4.155,17.584,7.916,26.137,12.335c10.619,5.487,9.01,12.708-0.305,17.878
		c-7.4,4.107-14.74,6.896-23.63,5.869c-26.841-3.102-53.046,2.882-79.387,6.573c-1.293,0.181-2.92,1.536-3.468,2.759
		c-1.212,2.709-2.067,5.634-2.663,8.553c-3.463,16.986-9.462,33.153-15.544,49.311c-0.737,1.958-0.442,4.304-0.625,6.47
		c2.18-0.192,4.479-0.001,6.521-0.637c17.908-5.577,35.659-11.696,53.695-16.814c8.713-2.472,17.885-1.772,26.574,1.384
		c10.735,3.899,14.691,11.864,11.517,22.779c-4.195,14.428-12.534,26.328-22.667,37.132c-1.695,1.808-3.41,3.597-5.748,6.06
		c2.383,2.025,4.223,4.251,6.584,5.448c4.282,2.172,9.062,3.384,13.272,5.665c2.859,1.55,5.698,3.844,7.476,6.516
		c2.512,3.777,2.095,7.437-1.952,10.852c-14.938,12.605-31.907,21.807-49.754,29.228c-13.774,5.728-28.163,9.98-42.301,14.823
		C746.908,448.259,745.598,448.132,743.336,448.34z M736.079,223.606c-0.725-1.531-1.483-4.582-3.321-6.693
		c-3.147-3.614-7.134-6.482-10.473-9.948c-5.383-5.587-10.965-11.072-15.634-17.229c-3.887-5.125-6.862-11.018-9.703-16.833
		c-1.708-3.496-4.032-5.614-7.686-6.321c-6.858-1.328-13.729-2.591-20.613-3.776c-4.612-0.795-7.901,1.898-8.217,6.642
		c-0.122,1.825-0.059,3.665-0.017,5.497c0.258,11.346-3.316,21.211-11.022,29.64c-1.36,1.487-2.312,3.662-2.706,5.667
		c-2.602,13.223-4.657,26.563-7.637,39.695c-1.152,5.079,1.081,6.536,4.796,8.005c6.695,2.646,13.431,1.452,20.19,0.454
		c19.09-2.818,38.309-5.152,56.507-12.015C735.475,240.759,734.058,238.404,736.079,223.606z M752.217,88.364
		c-19.823,2.793-40.657,5.077-59.95,13.305c-9.372,3.997-17.972,9.979-26.479,15.72c-2.543,1.716-4.547,5.479-5.11,8.608
		c-1.038,5.767-0.612,11.778-1.189,17.649c-0.663,6.751,2.839,10.182,9.395,8.69c28.295-6.433,55.681-15.702,82.429-26.854
		c2.446-1.021,5.132-3.589,5.935-6.022c2.225-6.748,3.753-13.758,5.101-20.752C763.531,92.577,759.225,88.074,752.217,88.364z"/>
	<path fill-rule="evenodd" clip-rule="evenodd" d="M1165.35,120.419c-1.714,0.389-3.441,0.729-5.141,1.174
		c-10.934,2.856-21.86,5.737-32.792,8.601c-0.643,0.168-1.304,0.283-1.963,0.369c-19.299,2.512-32.673-13.379-25.833-31.725
		c4.803-12.882,11.163-25.2,17.166-37.606c1.633-3.375,1.643-5.246-1.832-7.085c-2.897-1.534-5.482-3.659-9.609-6.482
		c6.541-3.763,12.133-7.095,17.864-10.168c0.979-0.525,2.676-0.27,3.831,0.174c11.927,4.579,23.823,9.239,35.691,13.969
		c1.52,0.605,2.887,1.656,4.227,2.634c8.518,6.217,9.901,10.312,7.455,20.57c-0.441,1.851-0.547,5.295,0.223,5.629
		c2.129,0.924,5.145,1.445,7.207,0.619c13.269-5.316,26.778-8.805,40.826-4.164c5.849,1.932,11.458,5.223,16.466,8.871
		c4.742,3.454,4.41,5.965,0.477,10.372c-15.166,16.994-32.636,31.374-50.917,44.829c-2.11,1.554-5.422,3.149-3.479,6.01
		c0.946,1.393,4.847,1.595,7.154,1.113c14.986-3.131,29.835-6.945,44.864-9.826c9.456-1.812,19.123-2.93,28.74-3.379
		c10.439-0.488,20.078,3.042,26.623,11.34c7.49,9.495,14.347,19.58,20.579,29.949c5.584,9.291,5.042,18.815-2.857,27.057
		c-14.632,15.265-29.387,30.411-43.958,45.731c-5.273,5.544-10.027,11.579-15.287,17.136c-3.345,3.533-1.718,5.96,1.586,7.24
		c4.611,1.787,9.504,2.97,14.369,3.951c7.868,1.588,12.109,7.641,11.539,15.453c-0.197,2.725,1.836,5.745,3.24,8.427
		c3.119,5.961,2.38,9.749-3.967,12.271c-5.323,2.116-11.133,3.704-16.819,4.058c-8.878,0.55-17.871-0.745-26.749-0.191
		c-24.136,1.507-46.426,9.879-68.192,19.718c-13.03,5.89-25.693,12.607-38.831,18.231c-6.341,2.715-13.317,4.172-20.145,5.478
		c-10.888,2.082-19.958-1.976-27.534-9.678c-10.74-10.92-17.101-24.458-22.642-38.449c-0.381-0.961-0.05-2.203,1.101-3.715
		c1.719,1.914,3.413,3.851,5.159,5.739c5.599,6.059,11.608,11.712,20.042,13.229c3.032,0.545,6.532-0.055,9.516-1.046
		c4.045-1.344,5.18-3.975,3.355-8.576c-8.336-21.024-16.455-42.155-20.716-64.496c-0.743-3.898-1.138-7.864-1.686-11.739
		c-4.312-1.594-5.015,1.695-5.853,4.242c-4.357,13.272-8.912,26.496-12.697,39.935c-1.888,6.698-2.279,13.817-3.264,20.204
		c-2.562,4.155-5.822,7.972-7.485,12.39c-7.897,20.979-15.041,42.245-23.075,63.17c-6.906,17.992-14.588,35.69-22.07,53.458
		c-2.155,5.117-10.951,7.169-15.521,3.668c-6.076-4.655-11.795-9.789-17.958-14.321c-6.967-5.124-6.997-11.654-5.096-19.081
		c6.271-24.481,12.978-48.876,18.31-73.564c2.647-12.261,2.736-25.084,3.854-37.664c3.06-34.459-4.451-67.149-16.693-99.04
		c-1.072-2.794-2.137-5.612-2.869-8.505c-0.299-1.18,0.301-2.586,0.492-3.889c1.266,0.545,2.729,0.851,3.748,1.693
		c1.258,1.041,2.154,2.523,3.195,3.824c10.623,13.263,20.967,26.761,31.936,39.73c13.416,15.862,18.977,33.391,15.018,54.159
		c-2.646,13.879-3.928,28.024-5.553,42.082c-0.246,2.131,0.959,4.43,1.493,6.651c0.765,0.089,1.53,0.177,2.295,0.266
		c4.584-6.652,9.506-13.1,13.692-19.993c15.877-26.143,25.018-54.938,33.301-84.157c7.067-24.934,15.159-49.582,23.047-74.275
		c1.348-4.219,3.807-8.118,6.039-12c0.957-1.666,2.408-3.488,4.074-4.177c1.496-0.618,3.73-0.095,5.342,0.608
		c0.474,0.207,0.285,2.875-0.205,4.19c-3.467,9.31-7.461,18.44-10.49,27.885c-1.276,3.979-0.758,8.575-0.812,12.894
		c-0.069,5.503,3.733,8.268,8.832,5.973c3.733-1.68,7.411-3.972,10.381-6.77c10.303-9.701,20.407-19.622,30.353-29.691
		c8.069-8.17,15.847-16.631,23.64-25.067c1.372-1.484,2.188-3.481,3.26-5.241C1166.023,121.22,1165.687,120.82,1165.35,120.419z
		 M1156.956,215.166c0-0.665-0.033-1.332,0.005-1.994c0.449-7.658-1.951-9.746-9.451-8.657c-5.078,0.736-10.252,1.74-15.314,1.449
		c-10.427-0.601-20.814-1.932-31.205-3.081c-4.342-0.48-7.533,2.833-6.495,7.182c0.847,3.546,1.678,7.128,2.942,10.535
		c3.057,8.23,6.001,16.535,9.688,24.487c2.659,5.734,5.434,6.563,11.364,4.773c6.193-1.868,12.345-3.901,18.426-6.108
		C1150.223,238.923,1159.17,230.94,1156.956,215.166z M1189.969,206.94c-0.215,6.313,2.404,10.739,6.584,9.514
		c8.109-2.378,13.672,1.684,19.631,5.626c6.079,4.022,8.967,3.645,11.345-3.265c4.307-12.519,7.701-25.359,11.24-38.131
		c1.373-4.953-0.45-7.537-5.611-6.757c-9.937,1.503-19.882,3.438-29.524,6.228c-8.409,2.435-13.274,8.418-12.846,17.862
		C1190.922,200.972,1190.261,203.964,1189.969,206.94z M1158.634,276.293c0.196-0.041,0.392-0.083,0.587-0.124
		c-0.932-3.671-1.393-7.566-2.988-10.923c-0.857-1.804-3.713-3.851-5.583-3.772c-7.563,0.315-15.093,1.411-22.636,2.225
		c-3.761,0.405-5.609,3.199-4.731,6.894c1.071,4.51,2.776,9.039,2.842,13.579c0.113,7.906,5.038,15.069,2.929,23.319
		c-0.756,2.956,2.079,4.837,4.804,4.062c13.091-3.721,24.214-9.466,23.997-24.335
		C1157.801,283.582,1158.357,279.935,1158.634,276.293z M1193.955,265.1c0,2.986-0.221,5.992,0.047,8.953
		c0.523,5.779,5.529,8.243,10.397,5.067c1.742-1.136,3.664-2.749,4.378-4.583c3.465-8.9,6.821-17.864,9.631-26.986
		c1.129-3.663-2.773-6.553-6.546-5.52C1198.09,245.803,1193.86,251.223,1193.955,265.1z"/>
	<path fill-rule="evenodd" clip-rule="evenodd" d="M1189.957,430.876c-3.627-1.231-6.303-1.713-8.51-2.998
		c-2.848-1.658-5.896-3.516-7.855-6.059c-9.999-12.975-24.252-17.335-39.346-20.252c-12.646-2.444-29.854,5.477-36.052,16.813
		c-1.102,2.015-1.991,4.248-2.459,6.488c-2.092,10.027-9.524,16.377-19.766,16.901c-18.786,0.961-33.044-7.241-44.212-21.693
		c-4.155-5.376-8.238-10.446-6.188-18.449c1.07-4.178-0.844-9.176-1.654-13.761c-0.582-3.285-0.191-5.877,3.154-7.432
		c1.041-0.483,2.084-1.165,2.848-2.009c6.74-7.447,14.402-5.907,22.264-2.352c2.271,1.027,4.693,1.925,6.652,3.404
		c6.701,5.062,14.44,4.952,21.434,2.566c17.024-5.805,33.845-6.022,51.19-1.907c10.431,2.476,21.104,4.285,31.773,5.316
		c19.813,1.915,38.617-2.693,56.921-10.138c25.867-10.521,51.798-20.898,77.851-30.947c17.159-6.619,33.98-3.89,50.334,3.449
		c0.907,0.407,1.804,0.877,2.621,1.439c15.813,10.881,15.435,15.148,5.625,32.568c-1.999,3.551-5.18,4.283-9.437,2.881
		c-14.194-4.674-28.327-9.877-42.882-13.036c-20.51-4.452-39.334,1.577-55.748,14.035c-6.646,5.046-12.008,11.888-17.504,18.298
		c-2.057,2.399-3.611,5.794-4.021,8.915c-0.724,5.503-3.425,9.29-8.368,10.729C1208.943,426.469,1199.068,428.619,1189.957,430.876z
		"/>
	<path fill-rule="evenodd" clip-rule="evenodd" d="M98.706,50.805c1.318-5.391,2.639-11.212,4.182-16.974
		c1.461-5.458,2.938-10.929,4.818-16.25c1.359-3.847,4.604-4.668,7.186-2.025c25.677,26.285,49.558,53.927,65.662,87.411
		c4.183,8.698,3.896,11.979-2.817,18.664c-4.116,4.098-8.557,7.939-13.245,11.358c-1.74,1.269-4.664,1.595-6.937,1.343
		c-18.157-2.014-30.147-13.046-39.133-27.864C108.12,89.484,102.154,70.88,98.706,50.805z"/>
	<path fill-rule="evenodd" clip-rule="evenodd" d="M663.283,393.625c2.658-21.191-0.39-38.963-2.321-56.804
		c-0.175-1.617,0.079-4.496,0.824-4.748c1.632-0.553,4.009-0.336,5.552,0.521c8.522,4.733,14.492,12.108,19.631,20.161
		c12.915,20.232,20.633,42.688,27.721,65.403c2.274,7.288,4.568,14.568,6.881,21.844c1.892,5.953-0.25,8.721-6.597,8.61
		c-12.651-0.22-23.348-5.895-33.852-12.083c-2.717-1.601-5.269-3.479-7.92-5.194c-7.235-4.679-9.757-11.733-9.894-19.895
		C663.189,404.459,663.283,397.475,663.283,393.625z"/>
	<path fill-rule="evenodd" clip-rule="evenodd" d="M968.311,86.689c16.496,0.891,32.102,2.231,46.735,8.473
		c11.127,4.746,19.438,12.125,21.29,24.945c0.936,6.475-0.394,10.712-6.559,12.973c-8.829,3.238-18.093,5.35-27.26,7.582
		c-3.849,0.937-7.924,0.938-11.895,1.386c-5.953,0.672-9.576-3.404-8.127-9.175c0.566-2.257,0.935-4.597,1.787-6.742
		c3.707-9.334-0.272-16.434-7.129-21.965c-4.986-4.023-11.037-6.706-16.458-10.225c-1.42-0.922-2.263-2.731-3.37-4.133
		c1.605-1.04,3.093-2.579,4.846-2.993C964.381,86.292,966.807,86.689,968.311,86.689z"/>
	<path fill-rule="evenodd" clip-rule="evenodd" fill="#FFFFFF" d="M736.079,223.606c-2.021,14.798-0.604,17.153-15.536,22.784
		c-18.198,6.862-37.417,9.196-56.507,12.015c-6.759,0.998-13.495,2.191-20.19-0.454c-3.715-1.469-5.948-2.926-4.796-8.005
		c2.98-13.132,5.035-26.473,7.637-39.695c0.394-2.005,1.346-4.18,2.706-5.667c7.706-8.429,11.28-18.294,11.022-29.64
		c-0.042-1.832-0.104-3.672,0.017-5.497c0.316-4.743,3.605-7.437,8.217-6.642c6.884,1.186,13.755,2.448,20.613,3.776
		c3.653,0.707,5.978,2.825,7.686,6.321c2.841,5.815,5.816,11.708,9.703,16.833c4.669,6.156,10.251,11.642,15.634,17.229
		c3.339,3.466,7.325,6.334,10.473,9.948C734.596,219.024,735.354,222.075,736.079,223.606z"/>
	<path fill-rule="evenodd" clip-rule="evenodd" fill="#FFFFFF" d="M752.217,88.364c7.008-0.29,11.314,4.213,10.132,10.345
		c-1.348,6.994-2.876,14.004-5.101,20.752c-0.803,2.434-3.488,5.002-5.935,6.022c-26.748,11.151-54.134,20.421-82.429,26.854
		c-6.556,1.491-10.058-1.939-9.395-8.69c0.577-5.871,0.151-11.883,1.189-17.649c0.562-3.129,2.567-6.893,5.11-8.608
		c8.507-5.74,17.107-11.723,26.479-15.72C711.56,93.441,732.394,91.157,752.217,88.364z"/>
</g>
</svg>
